<?xml version="1.0" standalone="no"?>
<!DOCTYPE svg PUBLIC "-//W3C//DTD SVG 20010904//EN"
 "http://www.w3.org/TR/2001/REC-SVG-20010904/DTD/svg10.dtd">
<svg version="1.0" xmlns="http://www.w3.org/2000/svg"
 width="1712.000000pt" height="1712.000000pt" viewBox="0 0 1712.000000 1712.000000"
 preserveAspectRatio="xMidYMid meet">
<metadata>
Created by potrace 1.14, written by Peter Selinger 2001-2017
</metadata>
<g transform="translate(0.000000,1712.000000) scale(0.100000,-0.100000)"
fill="#000000" stroke="none">
<path d="M3370 16853 c-480 -47 -862 -157 -1270 -364 -648 -329 -1160 -841
-1489 -1489 -180 -354 -276 -657 -344 -1080 l-21 -135 -3 -3123 -3 -3123 20
11 c11 6 20 17 20 25 0 9 6 12 17 8 11 -4 14 -3 9 5 -4 7 -1 12 9 12 8 0 20
12 25 26 6 14 14 23 19 19 5 -3 12 -1 16 5 4 6 11 7 17 4 7 -5 8 -2 4 5 -5 8
0 14 13 18 12 3 21 12 21 21 0 8 3 13 6 9 3 -3 25 14 47 37 23 24 50 46 60 49
10 4 16 10 14 14 -3 5 1 14 9 21 8 7 14 9 14 5 0 -4 5 0 11 9 5 10 16 18 23
18 8 0 16 9 19 20 3 11 13 23 23 27 10 3 26 15 36 25 10 10 23 16 28 13 6 -4
10 0 10 7 0 8 9 20 19 28 11 7 17 18 14 24 -4 5 1 7 11 3 9 -4 15 -3 12 2 -8
12 72 83 84 76 9 -6 14 9 11 29 -1 5 5 6 13 3 11 -4 13 -1 9 10 -4 11 -3 14 6
9 17 -11 64 22 57 40 -3 9 -1 12 4 9 6 -3 10 -1 10 5 0 6 5 8 10 5 5 -3 10 -1
10 5 0 6 5 8 10 5 6 -4 10 -3 9 2 -4 21 2 33 16 33 8 0 15 5 15 10 0 6 4 10 9
10 5 0 28 18 51 40 23 22 46 37 51 34 5 -3 9 -2 8 3 -1 4 -1 15 0 23 1 13 3
13 10 1 8 -12 11 -9 17 13 5 20 9 24 15 14 7 -10 9 -10 10 2 1 8 1 18 0 22 0
4 6 5 14 2 9 -4 18 1 22 12 7 19 23 34 34 31 12 -4 39 26 39 43 0 14 5 17 22
12 17 -4 20 -2 15 11 -4 12 -1 17 11 17 9 0 30 18 46 40 17 22 34 40 39 40 5
0 3 -8 -4 -17 -11 -15 -10 -14 9 1 12 11 22 22 22 26 0 13 57 70 69 70 22 0
62 33 57 46 -3 8 -2 13 2 13 30 -5 44 3 39 21 -4 15 0 20 14 20 10 0 19 4 19
10 0 5 7 7 15 4 10 -4 15 0 15 16 0 11 5 18 10 15 6 -3 10 1 10 9 0 9 7 16 16
16 8 0 12 5 9 10 -4 6 8 13 25 16 21 5 29 11 26 21 -3 8 -1 11 4 8 6 -3 10 1
10 10 0 9 4 13 10 10 5 -3 10 -1 10 5 0 6 4 8 10 5 5 -3 15 5 21 19 7 14 17
23 22 19 6 -4 8 0 4 9 -4 12 -1 14 15 10 14 -3 19 -1 14 6 -4 7 -1 12 9 12 10
0 13 5 9 12 -5 8 -2 9 9 5 9 -3 16 -3 16 1 -1 4 -1 940 0 2080 l1 2072 2348 0
2347 0 25 21 c14 11 19 17 11 13 -9 -5 -12 -3 -7 5 4 6 15 10 24 9 9 -2 21 7
27 19 7 13 15 20 18 16 4 -3 7 1 7 11 0 9 4 14 10 11 5 -3 15 5 21 19 7 14 16
23 21 20 4 -3 5 -11 2 -17 -4 -7 -3 -8 2 -4 5 5 9 16 9 25 0 9 7 17 15 17 8 0
20 9 25 20 6 11 16 20 22 20 15 0 28 13 28 28 0 7 9 13 20 15 11 2 25 9 30 14
7 8 5 8 -5 3 -8 -4 -5 2 8 14 12 12 27 19 34 15 8 -5 9 -2 5 10 -4 10 -3 15 3
11 6 -3 13 1 16 9 3 8 14 18 25 21 11 4 16 11 13 17 -5 8 -1 9 10 5 10 -4 15
-3 11 3 -3 6 4 10 17 10 18 0 20 2 8 10 -13 9 -8 14 12 12 3 -1 12 5 18 13 7
8 19 15 26 15 8 0 11 6 8 15 -4 8 -2 15 3 15 6 0 15 10 21 23 6 12 11 16 11 9
1 -7 6 -10 11 -7 6 4 8 11 5 16 -4 5 -1 9 5 9 15 0 41 26 33 34 -4 3 4 6 16 6
12 0 29 7 37 15 9 8 11 15 5 15 -6 0 -11 5 -11 12 0 6 3 9 6 5 12 -12 66 24
60 39 -3 8 -2 13 3 9 5 -3 21 9 36 27 15 18 24 26 20 18 -5 -8 -17 -26 -29
-40 -16 -19 -13 -18 12 5 19 17 41 42 50 57 9 16 21 27 27 26 13 -3 55 38 47
46 -3 3 2 6 12 6 9 0 14 5 11 10 -3 6 1 10 9 10 8 0 19 6 23 14 4 8 12 15 18
15 5 0 11 5 14 12 2 8 -1 9 -10 3 -12 -7 -12 -5 0 9 7 9 24 17 37 17 15 0 29
10 40 29 10 17 21 28 26 25 4 -3 8 0 8 5 0 6 6 11 14 11 8 0 18 5 22 12 4 6 3
8 -4 4 -6 -3 -14 -2 -17 4 -4 6 -3 10 2 9 24 -4 43 3 43 15 0 8 5 18 12 22 7
4 8 3 4 -4 -4 -8 -2 -10 8 -6 9 3 12 12 9 21 -5 12 -3 14 7 8 10 -6 12 -4 7 9
-5 11 -3 16 5 14 6 -2 27 11 46 29 18 18 38 31 43 28 5 -4 6 0 3 8 -4 10 1 15
13 14 10 -1 17 4 16 10 -2 7 2 12 9 10 6 -1 17 9 25 23 7 14 13 21 13 15 0 -5
5 -2 11 8 5 9 17 17 24 17 8 0 15 7 15 15 0 9 9 15 25 15 16 0 23 4 19 13 -2
7 7 19 20 27 14 7 23 16 21 20 -6 9 24 22 35 15 4 -2 7 5 6 18 -1 16 4 21 18
19 12 -2 16 1 10 9 -5 9 -2 10 12 5 10 -4 15 -4 12 0 -4 4 -3 15 3 26 6 11 13
17 16 14 9 -9 43 24 43 41 0 8 4 12 9 8 5 -3 12 -1 16 4 3 6 13 8 23 5 14 -5
15 -4 2 5 -13 9 -13 12 -1 23 12 11 13 10 6 -2 -5 -8 6 0 23 18 18 17 38 32
45 32 8 0 7 4 -3 10 -11 7 -7 10 18 10 20 0 32 5 32 13 0 14 36 52 49 52 3 0
5 6 3 14 -2 9 2 12 12 8 9 -4 16 -2 16 4 0 6 5 7 11 4 6 -4 13 2 16 14 5 19
15 25 35 22 4 0 4 7 1 16 -4 10 -2 14 5 9 6 -3 13 2 17 13 3 11 16 23 27 27
21 6 68 44 55 44 -4 0 9 16 28 36 19 19 39 33 45 29 5 -3 10 1 10 9 0 8 5 18
12 22 7 5 8 3 3 -6 -5 -9 -4 -11 3 -6 7 4 12 16 12 27 0 10 5 19 11 19 5 0 7
-4 4 -10 -3 -6 1 -7 9 -4 9 3 14 9 11 14 -6 9 41 50 49 43 3 -4 6 -1 6 5 0 6
9 13 19 17 10 3 21 15 24 27 4 13 11 19 21 15 11 -4 13 -1 9 10 -5 12 -2 15
10 10 11 -4 14 -2 10 9 -3 8 1 14 9 14 7 0 19 10 27 21 7 12 16 18 20 12 3 -5
14 -1 24 9 9 10 12 18 6 18 -5 0 -7 5 -4 10 4 6 10 8 15 5 10 -6 80 58 80 74
0 6 11 13 25 17 14 3 22 10 19 15 -3 5 1 9 8 9 7 0 19 9 26 20 7 12 16 19 20
16 4 -2 13 2 20 10 10 11 10 14 0 15 -7 0 -2 5 12 11 14 6 28 10 32 10 4 -1
12 7 18 18 6 11 18 20 28 20 15 0 15 2 2 10 -14 9 -13 11 9 14 14 2 37 26 26
26 -6 0 1 6 15 13 14 8 24 20 22 27 -3 11 0 11 12 0 13 -10 16 -10 16 4 0 9 7
19 15 22 8 4 15 13 15 21 0 8 4 12 9 9 14 -9 41 5 41 20 0 8 7 17 15 20 8 4
15 12 15 19 0 7 8 16 18 19 43 16 73 39 68 51 -3 8 0 12 7 9 7 -2 21 9 32 25
10 16 23 27 27 25 5 -3 11 2 14 10 3 9 15 16 26 16 18 0 19 2 7 17 -10 12 -10
14 -1 9 7 -4 15 -1 18 8 3 9 10 16 16 16 5 0 6 -6 2 -12 -4 -7 5 0 20 15 14
16 24 33 21 38 -4 5 0 9 8 9 20 0 58 35 49 45 -4 5 -2 5 5 1 6 -3 14 -2 18 4
4 6 11 7 17 4 7 -4 8 -2 4 4 -4 7 -3 12 3 12 6 0 8 7 5 15 -4 11 -2 13 9 10 8
-4 17 1 21 12 6 15 9 15 17 3 8 -11 9 -9 4 9 -6 19 -4 23 9 18 9 -4 16 -2 16
4 0 6 6 7 13 3 7 -5 7 -2 -2 10 -8 9 -10 16 -5 15 20 -3 35 2 29 10 -3 5 0 13
6 17 7 4 9 3 5 -4 -3 -6 -2 -13 4 -17 6 -3 10 3 10 15 0 15 5 20 14 17 10 -4
13 -1 9 9 -3 9 0 12 9 9 14 -6 58 36 58 56 0 5 5 7 11 4 6 -4 13 2 16 13 3 13
11 18 19 15 12 -4 19 7 15 29 0 4 5 5 12 2 14 -5 87 67 87 86 0 6 5 8 10 5 6
-4 8 -12 4 -18 -3 -7 2 -3 10 8 9 11 14 25 12 31 -3 7 3 10 15 7 14 -4 19 0
19 16 0 13 4 19 10 16 6 -4 25 9 43 27 17 18 39 33 47 33 8 0 17 11 21 25 4
14 7 21 8 15 1 -5 12 2 25 18 13 15 27 27 32 27 12 0 64 48 87 80 10 14 15 18
12 10 -4 -10 -2 -9 8 2 8 10 18 14 22 10 5 -4 5 1 2 11 -5 12 -1 17 12 17 10
0 24 7 31 15 11 13 -402 15 -3706 13 -2046 0 -3735 -3 -3754 -5z m7320 -117
c0 -2 -7 -9 -15 -16 -13 -11 -14 -10 -9 4 5 14 24 23 24 12z m-2993 -2642 c-3
-3 -12 -4 -19 -1 -8 3 -5 6 6 6 11 1 17 -2 13 -5z"/>
<path d="M12295 16851 c-3 -5 -2 -12 3 -15 5 -3 9 1 9 9 0 17 -3 19 -12 6z"/>
<path d="M12315 16834 c-14 -22 -19 -23 -33 -12 -9 7 -14 9 -11 5 8 -10 -41
-67 -57 -67 -6 0 -19 -9 -29 -20 -10 -11 -15 -20 -10 -20 4 0 2 -7 -5 -15 -7
-8 -21 -15 -32 -15 -10 0 -16 -4 -13 -10 6 -9 -8 -14 -28 -11 -5 1 -6 -3 -2
-9 3 -6 -4 -14 -17 -19 -13 -6 -19 -10 -14 -10 5 -1 3 -8 -4 -16 -7 -8 -17
-12 -23 -8 -6 4 -8 0 -4 -10 5 -13 0 -17 -22 -17 -19 0 -32 -7 -41 -25 -7 -14
-17 -25 -22 -25 -5 0 -6 -5 -2 -12 5 -8 2 -9 -11 -4 -15 5 -16 4 -5 -9 11 -13
10 -14 -5 -9 -13 5 -16 4 -11 -5 4 -7 2 -10 -5 -9 -7 2 -19 -10 -27 -25 -10
-20 -19 -27 -30 -22 -9 3 -13 3 -10 -1 10 -9 -20 -36 -32 -29 -6 4 -10 3 -9
-2 4 -23 -2 -32 -18 -26 -9 4 -14 2 -10 -4 3 -5 -3 -17 -14 -26 -16 -15 -19
-15 -19 -2 0 13 -2 13 -14 3 -8 -7 -12 -16 -9 -20 2 -5 -2 -8 -9 -8 -9 0 -9
-3 2 -10 13 -8 12 -10 -2 -10 -10 0 -18 -6 -18 -12 0 -10 -3 -9 -9 1 -7 11
-10 9 -16 -8 -3 -11 -11 -21 -16 -21 -6 0 -7 5 -3 12 4 7 3 8 -5 4 -6 -4 -9
-11 -6 -16 2 -4 -4 -19 -15 -33 -14 -18 -27 -24 -42 -20 -19 4 -20 3 -8 -6 14
-10 13 -12 -10 -15 -5 0 -10 -5 -9 -11 0 -5 -10 -13 -23 -16 -13 -3 -22 -11
-21 -17 2 -7 -2 -12 -8 -12 -5 0 -7 -5 -4 -10 3 -6 -5 -14 -18 -19 -13 -5 -27
-18 -31 -27 -6 -16 -8 -16 -16 -4 -8 12 -10 10 -10 -7 0 -13 -6 -23 -14 -23
-8 0 -25 -13 -38 -29 -13 -15 -35 -36 -50 -46 -16 -10 -25 -22 -21 -29 4 -6
-2 -4 -13 4 -10 8 -16 10 -12 6 9 -11 -21 -64 -41 -71 -10 -4 -7 3 7 18 12 13
22 27 22 33 0 5 -5 1 -11 -9 -6 -9 -15 -14 -21 -11 -6 4 -8 3 -5 -3 8 -12 -36
-56 -46 -46 -4 3 -7 -3 -7 -15 0 -13 -12 -28 -30 -39 -16 -9 -30 -21 -30 -26
0 -5 -8 -3 -17 4 -15 12 -16 12 -10 -4 5 -14 -1 -21 -26 -32 -17 -8 -28 -14
-24 -15 4 0 2 -6 -5 -14 -7 -8 -16 -12 -20 -9 -5 2 -8 -2 -8 -9 0 -12 -41 -55
-47 -50 -8 6 -23 0 -23 -9 0 -5 5 -7 12 -3 7 4 8 3 4 -5 -4 -6 -12 -9 -17 -6
-5 4 -9 -1 -9 -10 0 -9 -5 -13 -10 -10 -6 4 -7 11 -4 17 4 7 2 8 -5 4 -6 -4
-9 -12 -6 -17 4 -5 1 -9 -5 -9 -6 0 -9 -4 -5 -9 3 -6 -4 -15 -15 -21 -11 -6
-18 -15 -15 -20 6 -10 -51 -31 -60 -22 -3 4 -3 -1 1 -11 4 -13 2 -16 -9 -11
-10 3 -18 -2 -22 -17 -10 -29 -76 -90 -92 -84 -7 2 -10 -4 -8 -15 2 -10 -3
-21 -11 -24 -10 -4 -13 -1 -9 7 4 6 -3 1 -14 -12 -14 -15 -27 -21 -38 -16 -15
5 -16 4 -5 -6 6 -7 12 -17 12 -23 0 -5 -3 -6 -6 -3 -11 10 -45 -13 -38 -25 5
-7 2 -9 -9 -5 -9 3 -19 1 -23 -5 -4 -7 -3 -8 4 -4 29 17 8 -6 -40 -45 -29 -24
-46 -34 -38 -23 13 18 13 18 -5 -1 -12 -12 -29 -24 -39 -28 -11 -4 -16 -13
-12 -23 3 -8 2 -12 -4 -9 -6 3 -10 1 -10 -5 0 -6 -4 -8 -10 -5 -5 3 -10 1 -10
-5 0 -7 -7 -9 -16 -6 -8 3 -12 2 -9 -4 3 -6 1 -10 -5 -10 -6 0 -8 -5 -5 -11 8
-12 -34 -51 -46 -43 -5 3 -9 0 -9 -6 0 -18 -24 -37 -39 -32 -8 3 -11 0 -7 -6
3 -6 -2 -13 -11 -16 -10 -3 -26 -19 -35 -36 -9 -16 -24 -30 -33 -30 -10 0 -13
5 -9 12 4 7 3 8 -5 4 -6 -4 -9 -11 -6 -16 9 -15 -7 -41 -22 -36 -8 3 -11 1 -8
-4 3 -6 1 -10 -5 -10 -6 0 -8 -4 -5 -10 4 -6 -5 -10 -19 -10 -15 0 -26 -6 -26
-14 0 -22 -24 -38 -38 -24 -9 9 -11 6 -7 -10 2 -14 -1 -22 -11 -22 -8 0 -14
-6 -14 -13 0 -17 -38 -39 -52 -31 -7 4 -8 3 -4 -4 4 -7 1 -12 -9 -12 -10 0
-13 -5 -9 -12 5 -8 2 -9 -9 -5 -9 3 -16 3 -16 -1 4 -22 -3 -32 -21 -32 -11 0
-20 -5 -20 -11 0 -5 6 -7 13 -3 6 3 0 -5 -15 -20 -15 -14 -33 -26 -40 -26 -9
0 -9 3 2 10 11 7 11 10 2 10 -7 0 -18 -13 -23 -30 -6 -16 -15 -27 -20 -24 -5
3 -9 -2 -9 -11 0 -10 -6 -15 -13 -12 -6 2 -18 -2 -25 -9 -7 -8 -10 -14 -6 -14
4 0 -1 -9 -11 -20 -10 -11 -22 -17 -26 -14 -5 3 -9 -3 -9 -13 0 -15 -2 -16
-10 -3 -8 13 -10 12 -10 -3 0 -11 -9 -21 -20 -24 -11 -3 -17 -10 -13 -16 4 -6
0 -8 -10 -4 -11 4 -14 2 -10 -9 3 -10 0 -12 -10 -8 -8 3 -18 0 -23 -7 -5 -8
-3 -10 7 -5 8 4 1 -3 -16 -16 -16 -12 -38 -33 -49 -45 -10 -12 -23 -20 -29
-16 -5 3 -8 0 -5 -8 6 -17 -13 -38 -29 -32 -7 3 -13 0 -13 -6 0 -15 -51 -60
-68 -61 -7 0 -11 -4 -8 -9 3 -5 -2 -15 -11 -22 -15 -12 -16 -12 -10 4 3 9 2
17 -3 17 -6 0 -10 -7 -10 -16 0 -8 -3 -13 -8 -10 -10 6 -43 -19 -46 -36 -6
-30 -18 -46 -38 -51 -11 -3 -17 -10 -13 -16 3 -6 2 -11 -4 -11 -6 0 -20 -10
-32 -22 -12 -13 -19 -16 -15 -8 5 9 2 8 -7 -2 -16 -20 -32 -25 -21 -6 4 7 3 8
-5 4 -6 -4 -9 -11 -6 -16 3 -5 1 -11 -5 -15 -6 -4 -8 -11 -5 -16 3 -5 -1 -6
-10 -3 -11 5 -18 0 -22 -15 -3 -14 -11 -20 -20 -17 -8 3 -11 2 -8 -3 3 -5 1
-12 -5 -16 -5 -3 -10 0 -10 7 0 9 -3 9 -8 2 -4 -6 -16 -16 -27 -23 -15 -9 -16
-11 -2 -7 9 3 17 1 17 -4 0 -6 -7 -10 -16 -10 -8 0 -12 -4 -9 -10 3 -6 -1 -7
-10 -4 -10 4 -15 2 -13 -7 2 -8 -4 -13 -14 -13 -10 1 -15 -2 -12 -7 4 -8 -1
-10 -22 -9 -12 1 -41 -46 -36 -59 4 -10 1 -13 -11 -8 -9 3 -19 2 -22 -3 -4 -6
0 -10 7 -10 10 0 9 -3 -2 -10 -9 -6 -17 -5 -22 3 -5 7 -8 3 -8 -12 0 -20 -3
-22 -27 -17 -21 5 -24 4 -13 -3 13 -9 10 -15 -18 -41 -18 -16 -38 -30 -44 -30
-6 0 -9 -3 -6 -6 7 -6 -39 -54 -51 -54 -4 0 -18 -9 -31 -20 -12 -11 -28 -17
-34 -13 -6 4 -6 0 2 -9 11 -13 9 -15 -15 -10 -24 4 -26 3 -16 -10 9 -11 10
-17 1 -26 -8 -8 -15 -7 -25 6 -12 16 -13 16 -7 0 3 -10 -4 -28 -20 -45 -14
-15 -26 -22 -26 -15 0 7 -5 10 -11 7 -6 -4 -8 -13 -5 -21 5 -13 -12 -19 -37
-15 -5 1 -6 -3 -3 -8 8 -12 -4 -41 -16 -41 -6 0 -6 6 1 14 9 11 9 16 0 22 -8
4 -9 3 -5 -4 4 -7 2 -12 -3 -12 -6 0 -11 -7 -11 -15 0 -8 -7 -15 -16 -15 -8 0
-12 -4 -9 -10 3 -5 -10 -20 -29 -32 -20 -13 -36 -29 -36 -35 0 -7 -10 -15 -23
-18 -12 -4 -27 -16 -32 -28 -6 -12 -20 -27 -32 -33 -13 -6 -20 -14 -17 -17 4
-4 -2 -5 -12 -3 -11 2 -28 -6 -39 -17 -11 -11 -14 -17 -7 -13 6 4 12 2 12 -3
0 -6 -5 -11 -12 -11 -6 0 -26 -17 -44 -37 -18 -20 -36 -34 -40 -30 -11 11 -33
-13 -27 -29 3 -8 -1 -14 -11 -14 -9 0 -16 -6 -16 -14 0 -14 -29 -31 -38 -21
-3 2 3 7 12 11 9 3 16 10 16 15 0 20 -17 7 -40 -31 -20 -32 -27 -37 -39 -27
-12 9 -13 9 -7 0 4 -8 2 -13 -6 -13 -10 0 -10 -2 0 -9 11 -6 6 -14 -20 -32
-18 -13 -36 -27 -40 -33 -3 -5 -17 -10 -30 -12 -34 -4 -34 -4 -19 -13 10 -6 5
-12 -18 -22 -20 -9 -31 -21 -31 -34 0 -12 -3 -16 -8 -9 -5 9 -11 8 -20 -2 -7
-8 -9 -14 -5 -14 4 0 0 -5 -10 -11 -9 -5 -23 -7 -30 -3 -8 5 -7 2 2 -9 12 -15
12 -19 -1 -30 -13 -10 -17 -58 -22 -292 -3 -154 -6 -400 -6 -547 l0 -268 -636
-2 c-623 -3 -636 -3 -649 -23 -26 -36 -36 -46 -46 -40 -5 4 -9 0 -9 -7 0 -8
-20 -28 -45 -46 -25 -17 -45 -38 -45 -46 0 -22 -34 -38 -50 -23 -10 9 -11 9
-6 -1 8 -14 -18 -45 -28 -34 -4 3 -4 -1 -1 -10 7 -17 -20 -32 -38 -21 -6 4 -8
0 -4 -10 8 -22 -16 -40 -33 -24 -10 9 -11 9 -6 0 4 -7 3 -13 -1 -13 -5 0 -17
-14 -27 -30 -10 -17 -22 -27 -28 -24 -7 5 -9 1 -5 -9 4 -11 2 -14 -9 -10 -8 3
-14 -1 -14 -11 0 -9 -5 -16 -11 -16 -5 0 -7 4 -4 10 3 5 0 7 -9 4 -8 -3 -12
-12 -9 -20 4 -10 0 -12 -13 -7 -11 4 -15 3 -10 -5 3 -6 -2 -13 -13 -17 -11 -3
-18 -12 -15 -20 3 -7 0 -16 -7 -21 -8 -5 -10 -3 -4 7 8 12 6 12 -8 0 -9 -7
-14 -18 -10 -25 4 -6 -1 -4 -11 3 -16 13 -17 13 -15 0 4 -20 -61 -89 -83 -89
-11 0 -16 -4 -13 -10 3 -5 2 -10 -3 -10 -8 0 -24 -13 -84 -67 -7 -7 -18 -18
-24 -25 -17 -19 -51 -41 -60 -39 -4 1 -12 -8 -17 -21 -7 -18 -10 -20 -17 -8
-5 8 -10 12 -11 8 -4 -20 -5 -24 -17 -45 -7 -13 -16 -22 -20 -22 -20 3 -30 -3
-35 -21 -3 -12 -14 -20 -29 -21 -12 0 -17 -3 -11 -6 13 -5 -42 -58 -61 -58 -6
-1 -10 -6 -8 -13 1 -7 -5 -12 -13 -12 -8 0 -15 -7 -15 -16 0 -13 -3 -14 -14
-5 -11 9 -14 8 -12 -6 0 -12 -7 -19 -21 -21 -13 -2 -23 -8 -23 -13 0 -6 -5 -7
-10 -4 -6 4 -9 3 -8 -2 9 -34 -36 -74 -64 -57 -9 6 -9 3 1 -9 10 -12 10 -17 2
-17 -14 0 -41 -25 -42 -37 -1 -4 -5 -7 -10 -5 -5 1 -9 -6 -9 -15 0 -15 -2 -14
-15 3 -13 16 -14 16 -9 2 4 -12 1 -18 -9 -18 -9 0 -19 -5 -23 -12 -4 -7 -3 -8
4 -4 8 5 10 2 6 -9 -5 -13 -9 -13 -22 -3 -13 11 -15 10 -9 -4 5 -13 1 -18 -13
-18 -11 0 -20 -4 -20 -10 0 -5 -11 -20 -25 -34 -14 -14 -25 -30 -25 -36 0 -5
-3 -9 -7 -8 -5 2 -18 -7 -31 -20 -12 -12 -27 -20 -33 -17 -5 4 -9 3 -8 -2 1
-4 -1 -16 -6 -26 -6 -14 -10 -15 -23 -5 -13 11 -14 10 -10 -2 5 -17 -22 -51
-35 -43 -5 3 -15 -4 -23 -16 -9 -12 -20 -19 -25 -16 -5 4 -9 1 -9 -5 0 -6 -5
-8 -12 -4 -6 4 -9 3 -5 -2 3 -5 -1 -20 -10 -34 -8 -14 -12 -17 -9 -7 10 32
-41 -11 -53 -44 -6 -17 -15 -28 -20 -25 -5 3 -11 -1 -14 -9 -4 -8 -15 -12 -27
-10 -11 2 -18 0 -15 -5 3 -4 -1 -11 -7 -13 -10 -4 -10 -6 0 -6 10 -1 10 -4 0
-15 -7 -8 -16 -12 -20 -9 -5 2 -8 -1 -8 -7 0 -7 -7 -9 -15 -6 -9 3 -18 -1 -22
-10 -3 -8 -12 -13 -20 -9 -10 3 -13 1 -10 -9 3 -8 -3 -25 -13 -38 -13 -15 -19
-18 -20 -9 0 15 -14 6 -16 -10 -1 -5 -2 -13 -3 -19 0 -5 -10 -10 -21 -10 -12
0 -22 -9 -26 -24 -3 -14 -18 -29 -35 -36 -16 -7 -29 -19 -29 -27 0 -13 -3 -13
-15 -3 -9 7 -18 10 -22 6 -3 -3 -2 -6 4 -6 5 0 10 -7 10 -15 0 -12 -3 -12 -16
-2 -12 9 -13 9 -7 0 4 -8 2 -13 -4 -13 -6 0 -9 -4 -5 -9 3 -5 -4 -12 -15 -16
-11 -3 -20 -13 -20 -22 0 -9 -6 -13 -15 -9 -8 3 -15 1 -15 -4 0 -6 -3 -9 -7
-9 -20 3 -26 -2 -13 -11 13 -8 12 -10 -3 -10 -18 0 -57 -34 -57 -50 0 -5 -6
-10 -13 -10 -8 0 -14 -7 -14 -15 0 -13 190 -15 1644 -15 l1643 0 0 -785 0
-785 -1915 0 -1915 0 0 -1265 0 -1265 2130 0 2130 0 0 -785 0 -785 -2900 0
-2900 0 -1 1928 c-1 1060 -1 1930 0 1935 0 4 -4 7 -9 7 -6 0 -10 -7 -10 -16 0
-8 -5 -12 -10 -9 -6 4 -10 3 -9 -2 4 -16 -21 -64 -30 -59 -5 3 -14 -1 -21 -9
-7 -8 -16 -12 -21 -9 -5 3 -8 0 -7 -8 2 -7 -3 -12 -11 -10 -8 2 -11 -3 -8 -12
4 -9 -3 -16 -19 -20 -16 -4 -22 -11 -17 -19 4 -7 -2 -5 -12 3 -11 9 -16 10
-11 3 9 -16 -49 -77 -82 -87 -12 -4 -20 -12 -17 -17 4 -5 0 -9 -8 -9 -8 0 -21
-8 -28 -17 -10 -11 -10 -14 -1 -9 6 4 12 2 12 -3 0 -6 -9 -11 -20 -11 -11 0
-20 -7 -20 -15 0 -9 -9 -15 -22 -15 -19 0 -20 -2 -8 -11 12 -9 11 -10 -6 -6
-15 3 -21 0 -20 -12 1 -10 -5 -15 -16 -13 -18 3 -51 -36 -42 -50 3 -4 -2 -11
-11 -15 -10 -3 -21 0 -26 8 -8 13 -10 12 -13 -11 0 -5 -4 -10 -8 -10 -13 0
-45 -34 -41 -43 6 -11 -39 -46 -59 -47 -10 0 -18 -4 -18 -10 0 -5 7 -6 17 -3
11 4 14 3 9 -5 -4 -7 -14 -12 -22 -12 -8 0 -14 -5 -14 -11 0 -6 -7 -8 -16 -5
-8 3 -12 2 -9 -4 3 -6 1 -10 -5 -10 -5 0 -18 -13 -29 -30 -10 -16 -21 -27 -24
-23 -4 3 -7 1 -7 -7 0 -10 -3 -10 -15 0 -12 10 -14 8 -10 -9 3 -14 0 -18 -11
-14 -10 4 -17 -2 -21 -16 -3 -11 -12 -21 -20 -21 -8 0 -11 -4 -8 -10 3 -5 -1
-10 -10 -10 -10 0 -13 5 -9 12 4 6 3 8 -4 5 -5 -4 -8 -16 -5 -26 3 -10 -1 -22
-8 -26 -8 -5 -10 -4 -5 3 4 7 2 12 -3 12 -6 0 -11 -4 -11 -10 0 -5 -11 -20
-24 -33 -17 -17 -28 -21 -40 -15 -12 7 -14 5 -9 -8 4 -11 2 -15 -4 -11 -10 6
-25 -15 -27 -38 -1 -5 -7 -10 -13 -10 -7 0 -12 -3 -10 -7 2 -8 -31 -34 -48
-38 -5 -1 -14 -8 -18 -16 -5 -8 -12 -12 -18 -9 -5 4 -9 1 -9 -4 0 -6 -6 -10
-12 -8 -7 1 -13 -5 -13 -13 0 -16 -26 -41 -36 -34 -4 2 -12 -9 -18 -24 -8 -18
-25 -34 -47 -42 -21 -9 -33 -19 -30 -27 3 -7 1 -14 -4 -14 -6 -1 -16 -2 -22
-3 -7 0 -13 -5 -14 -11 -2 -21 -17 -45 -25 -39 -5 3 -9 1 -9 -4 0 -6 -11 -13
-25 -16 -14 -4 -23 -11 -20 -16 4 -6 -1 -13 -9 -16 -9 -3 -13 -11 -9 -17 4 -6
-4 -7 -22 -3 -25 7 -27 6 -15 -9 7 -9 9 -15 4 -14 -28 5 -43 -2 -37 -18 4 -11
3 -14 -5 -9 -7 4 -12 1 -12 -8 0 -8 -4 -18 -10 -21 -6 -4 -7 1 -3 11 6 15 4
15 -20 -1 -15 -9 -24 -22 -20 -31 3 -7 -2 -17 -11 -20 -9 -3 -13 -10 -10 -15
3 -5 2 -9 -3 -8 -4 1 -16 -1 -26 -4 -9 -4 -24 -9 -32 -12 -8 -2 -15 -8 -14
-12 3 -19 -2 -31 -17 -37 -8 -3 -12 -2 -9 4 3 6 -1 7 -10 4 -8 -4 -18 -17 -21
-31 -4 -15 -12 -22 -20 -19 -9 3 -11 0 -7 -11 4 -11 3 -14 -6 -9 -9 6 -11
-327 -8 -1461 3 -1444 3 -1470 24 -1603 68 -426 164 -726 350 -1093 468 -922
1349 -1585 2374 -1786 334 -65 -71 -61 5571 -61 4453 0 5141 2 5262 15 1611
171 2870 1430 3041 3041 13 121 15 809 15 5262 0 5635 4 5238 -60 5567 -165
842 -641 1593 -1329 2096 -418 306 -911 517 -1421 609 -254 45 -357 50 -1066
50 l-672 0 -17 -26z m-3035 -2674 c-20 -13 -33 -13 -25 0 3 6 14 10 23 10 15
0 15 -2 2 -10z m1347 -2795 l-6 -1835 1515 0 1514 0 0 1835 0 1835 770 0 770
0 0 -4655 0 -4655 -770 0 -770 0 0 2035 0 2035 -1515 0 -1515 0 0 -2035 0
-2035 -765 0 -765 0 0 4655 0 4655 772 0 771 0 -6 -1835z m-5957 -1259 c0 -3
-4 -8 -10 -11 -5 -3 -10 -1 -10 4 0 6 5 11 10 11 6 0 10 -2 10 -4z"/>
<path d="M12140 16709 c0 -5 5 -7 10 -4 6 3 10 8 10 11 0 2 -4 4 -10 4 -5 0
-10 -5 -10 -11z"/>
<path d="M9219 15433 c-13 -16 -12 -17 4 -4 16 13 21 21 13 21 -2 0 -10 -8
-17 -17z"/>
<path d="M10495 15259 c-4 -6 -5 -12 -2 -15 2 -3 7 2 10 11 7 17 1 20 -8 4z"/>
<path d="M8227 13273 c-10 -9 -9 -23 1 -23 5 0 9 7 9 15 0 17 -1 18 -10 8z"/>
<path d="M3520 11018 c0 -337 4 -608 8 -602 4 6 14 14 22 17 11 4 10 6 -5 7
-18 1 -19 1 -2 11 9 5 22 7 29 3 6 -4 8 -3 4 4 -3 6 3 13 14 17 11 3 20 11 20
16 0 6 -5 7 -12 3 -7 -4 -8 -3 -4 5 4 6 12 9 17 5 10 -6 35 20 39 41 1 10 29
29 41 30 4 0 23 17 42 37 23 24 37 33 40 25 4 -9 6 -9 6 1 1 6 7 12 14 12 8 0
21 8 30 18 19 21 23 37 6 27 -6 -4 -5 2 2 13 7 12 16 19 20 16 13 -8 102 70
91 81 -4 3 2 3 11 -1 13 -5 20 -1 24 15 3 11 9 18 14 15 5 -3 9 2 9 11 0 9 4
14 9 11 4 -3 19 6 31 19 13 14 27 25 31 25 12 0 55 45 63 65 3 10 12 15 21 11
8 -3 14 -2 14 2 -3 18 2 32 12 32 5 0 7 -6 3 -12 -3 -7 7 2 24 21 17 19 29 38
26 43 -3 4 1 5 9 2 15 -5 47 20 47 37 0 6 4 8 9 5 5 -3 12 1 15 10 3 8 11 12
17 9 6 -4 9 -1 7 7 -2 7 0 15 4 16 17 7 73 68 70 77 -2 6 3 2 12 -9 14 -18 15
-18 21 6 4 13 19 32 36 42 16 9 29 22 29 27 0 5 8 9 18 7 11 -2 16 3 14 15 -3
15 9 22 31 18 5 -1 6 3 2 9 -9 15 14 40 37 40 10 0 16 5 13 10 -3 6 -1 10 5
10 6 0 8 6 4 13 -4 6 -3 9 1 4 5 -4 15 -1 24 7 9 8 21 15 26 15 6 1 10 6 10
13 0 7 10 18 23 24 13 6 23 15 24 20 0 5 4 8 9 7 5 -2 9 4 9 13 0 8 4 13 8 10
10 -6 24 4 39 29 6 11 15 19 20 18 5 -1 20 8 33 19 14 11 19 16 11 12 -10 -5
-12 -3 -7 5 5 7 14 10 22 7 8 -3 14 -1 14 4 0 6 -252 10 -690 10 l-690 0 0
-612z m295 -349 c-4 -5 -12 -9 -18 -8 -9 0 -8 2 1 6 6 2 9 10 6 15 -4 7 -2 8
5 4 6 -4 9 -12 6 -17z"/>
<path d="M4375 11170 c-3 -5 -1 -10 4 -10 6 0 11 5 11 10 0 6 -2 10 -4 10 -3
0 -8 -4 -11 -10z"/>
<path d="M5656 10998 c3 -5 10 -6 15 -3 13 9 11 12 -6 12 -8 0 -12 -4 -9 -9z"/>
<path d="M5465 10840 c-3 -5 -1 -10 4 -10 6 0 11 5 11 10 0 6 -2 10 -4 10 -3
0 -8 -4 -11 -10z"/>
<path d="M5359 10733 c-13 -16 -12 -17 4 -4 16 13 21 21 13 21 -2 0 -10 -8
-17 -17z"/>
<path d="M5186 10583 c-6 -14 -5 -15 5 -6 7 7 10 15 7 18 -3 3 -9 -2 -12 -12z"/>
<path d="M3670 10549 c0 -5 5 -7 10 -4 6 3 10 8 10 11 0 2 -4 4 -10 4 -5 0
-10 -5 -10 -11z"/>
<path d="M4430 9925 c0 -8 2 -15 4 -15 2 0 6 7 10 15 3 8 1 15 -4 15 -6 0 -10
-7 -10 -15z"/>
</g>
</svg>
